<svg xmlns="http://www.w3.org/2000/svg" viewBox="0 0 120 120" fill="none">
  <rect width="120" height="120" rx="24" fill="#000000"/>
  <path d="M78.2 39.4c-2.2-2.8-5.4-4.4-8.4-4.4-4 0-5.6 1.9-8.4 1.9-2.8 0-5-1.9-8.4-1.9-3.4 0-7 2-9.2 5.6-3.2 5-2.6 14.4 2.4 22.4 1.8 2.8 4.2 6 7.4 6 2.6 0 3.6-1.7 7.2-1.7 3.6 0 4.4 1.7 7.2 1.7 3.2 0 5.8-3.6 7.6-6.4 1.2-2 1.7-3 2.6-5.2-7-2.6-8.2-12.6-1.2-16.4-2-2.4-4.6-3.8-7-3.8l.2.2z" fill="white"/>
  <path d="M69.6 30.6c1.4-1.8 2.4-4.4 2-6.6-2.2.2-4.8 1.6-6.4 3.4-1.4 1.6-2.6 4.2-2.2 6.6 2.4.1 5-1.4 6.6-3.4z" fill="white"/>
</svg>