<svg xmlns="http://www.w3.org/2000/svg" width="400" height="250" viewBox="0 0 400 250">
  <defs>
    <linearGradient id="bg" x1="0%" y1="0%" x2="100%" y2="100%">
      <stop offset="0%" style="stop-color:#E2231A"/>
      <stop offset="100%" style="stop-color:#C41E1A"/>
    </linearGradient>
    <linearGradient id="shine" x1="0%" y1="0%" x2="100%" y2="100%">
      <stop offset="0%" style="stop-color:#FFFFFF;stop-opacity:0.08"/>
      <stop offset="50%" style="stop-color:#FFFFFF;stop-opacity:0"/>
      <stop offset="100%" style="stop-color:#000000;stop-opacity:0.15"/>
    </linearGradient>
    <pattern id="dots" x="0" y="0" width="20" height="20" patternUnits="userSpaceOnUse">
      <circle cx="10" cy="10" r="0.8" fill="#FFFFFF" opacity="0.07"/>
    </pattern>
    <clipPath id="rounded">
      <rect width="400" height="250" rx="16" ry="16"/>
    </clipPath>
  </defs>
  <g clip-path="url(#rounded)">
    <!-- Background -->
    <rect width="400" height="250" fill="url(#bg)"/>
    <!-- Dot pattern texture -->
    <rect width="400" height="250" fill="url(#dots)"/>
    <!-- Diagonal stripe accents -->
    <line x1="280" y1="0" x2="400" y2="120" stroke="#FFFFFF" stroke-width="0.5" opacity="0.06"/>
    <line x1="300" y1="0" x2="400" y2="100" stroke="#FFFFFF" stroke-width="0.5" opacity="0.06"/>
    <line x1="320" y1="0" x2="400" y2="80" stroke="#FFFFFF" stroke-width="0.5" opacity="0.06"/>
    <line x1="0" y1="170" x2="120" y2="250" stroke="#FFFFFF" stroke-width="0.5" opacity="0.06"/>
    <line x1="0" y1="190" x2="100" y2="250" stroke="#FFFFFF" stroke-width="0.5" opacity="0.06"/>
    <line x1="0" y1="210" x2="80" y2="250" stroke="#FFFFFF" stroke-width="0.5" opacity="0.06"/>
    <!-- Shine overlay -->
    <rect width="400" height="250" fill="url(#shine)"/>
    <!-- Decorative circle behind icon -->
    <circle cx="200" cy="115" r="55" fill="none" stroke="#FFFFFF" stroke-width="1" opacity="0.12"/>
    <!-- Outer block/square (tilted slightly for style) -->
    <rect x="165" y="80" width="70" height="70" rx="6" ry="6" fill="none" stroke="#FFFFFF" stroke-width="3" opacity="0.9" transform="rotate(5,200,115)"/>
    <!-- Inner block -->
    <rect x="180" y="95" width="40" height="40" rx="4" ry="4" fill="none" stroke="#FFFFFF" stroke-width="2" opacity="0.5" transform="rotate(5,200,115)"/>
    <!-- Center square fill -->
    <rect x="190" y="105" width="20" height="20" rx="3" ry="3" fill="#FFFFFF" opacity="0.15" transform="rotate(5,200,115)"/>
    <!-- Small decorative blocks scattered -->
    <rect x="145" y="72" width="8" height="8" rx="1.5" fill="#FFFFFF" opacity="0.2" transform="rotate(-10,149,76)"/>
    <rect x="247" y="68" width="6" height="6" rx="1" fill="#FFFFFF" opacity="0.15" transform="rotate(15,250,71)"/>
    <rect x="250" y="142" width="7" height="7" rx="1.5" fill="#FFFFFF" opacity="0.18" transform="rotate(8,253,145)"/>
    <rect x="143" y="145" width="5" height="5" rx="1" fill="#FFFFFF" opacity="0.15" transform="rotate(-5,145,147)"/>
    <!-- Brand name -->
    <text x="200" y="210" text-anchor="middle" font-family="Arial, Helvetica, sans-serif" font-size="28" font-weight="bold" fill="#FFFFFF" letter-spacing="4">ROBLOX</text>
    <!-- Gift card text -->
    <text x="200" y="232" text-anchor="middle" font-family="Arial, Helvetica, sans-serif" font-size="10" fill="#FFFFFF" opacity="0.7" letter-spacing="3">GIFT CARD</text>
    <!-- Top-left chip rectangle -->
    <rect x="24" y="20" width="40" height="28" rx="4" ry="4" fill="#FFFFFF" opacity="0.12"/>
    <line x1="24" y1="30" x2="64" y2="30" stroke="#FFFFFF" opacity="0.08" stroke-width="0.5"/>
    <line x1="24" y1="38" x2="64" y2="38" stroke="#FFFFFF" opacity="0.08" stroke-width="0.5"/>
    <line x1="44" y1="20" x2="44" y2="48" stroke="#FFFFFF" opacity="0.08" stroke-width="0.5"/>
    <!-- Bottom border accent -->
    <rect x="0" y="246" width="400" height="4" fill="#FFFFFF" opacity="0.1"/>
  </g>
</svg>